PathFileType	4	(X/Y/Z)	C:/Users/opensim2020/Desktop/walking_exp_matlab/subject06_walking16_straight_03.trc																																																																																																																																																							
DataRate	CameraRate	NumFrames	NumMarkers	Units	OrigDataRate	OrigDataStartFrame	OrigNumFrames																																																																																																																																																			
100	100	4	51	mm	100	3070	283																																																																																																																																																			
Frame#	Time	LFHD			RFHD			LBHD			RBHD			C7			T10			CLAV			STRN			RBAK			LSHO			LUPA			LELB			LFRM			LWRA			LWRB			LFIN			RSHO			RUPA			RELB			RFRM			RWRA			RWRB			RFIN			LASI			RASI			LPSI			RPSI			LTHI			LKNE			LTIB			LANK			LHEE			LTOE			RTHI			RKNE			RTIB			RANK			RHEE			RTOE			*39			*40			*41			*42			*43			*44			*45			*46			*47			*48			*49			*50		
		X1	Y1	Z1	X2	Y2	Z2	X3	Y3	Z3	X4	Y4	Z4	X5	Y5	Z5	X6	Y6	Z6	X7	Y7	Z7	X8	Y8	Z8	X9	Y9	Z9	X10	Y10	Z10	X11	Y11	Z11	X12	Y12	Z12	X13	Y13	Z13	X14	Y14	Z14	X15	Y15	Z15	X16	Y16	Z16	X17	Y17	Z17	X18	Y18	Z18	X19	Y19	Z19	X20	Y20	Z20	X21	Y21	Z21	X22	Y22	Z22	X23	Y23	Z23	X24	Y24	Z24	X25	Y25	Z25	X26	Y26	Z26	X27	Y27	Z27	X28	Y28	Z28	X29	Y29	Z29	X30	Y30	Z30	X31	Y31	Z31	X32	Y32	Z32	X33	Y33	Z33	X34	Y34	Z34	X35	Y35	Z35	X36	Y36	Z36	X37	Y37	Z37	X38	Y38	Z38	X39	Y39	Z39	X40	Y40	Z40	X41	Y41	Z41	X42	Y42	Z42	X43	Y43	Z43	X44	Y44	Z44	X45	Y45	Z45	X46	Y46	Z46	X47	Y47	Z47	X48	Y48	Z48	X49	Y49	Z49	X50	Y50	Z50	X51	Y51	Z51
																																																																																																																																																										
248	2.47	1026.48303	1650.19043	-1066.20276	1005.28271	1630.32605	-937.58789	895.88727	1596.88342	-1092.67188	876.07526	1581.90955	-965.65363	885.04907	1434.52185	-1040.85278	852.61957	1104.91931	-1035.89539	994.35468	1357.24658	-1032.5719	1034.08337	1181.52673	-1045.99316	806.43231	1259.77002	-973.57764	951.42639	1393.27161	-1197.60974	982.55402	1194.58789	-1273.96094	1004.76666	1083.80664	-1288.56384	1105.93384	973.11871	-1296.78406	1220.16052	927.32941	-1242.31409	1179.05371	880.55347	-1275.70374	1261.60022	844.48676	-1268.96765	935.07404	1381.68359	-874.21698	879.94244	1181.69202	-800.008	883.66644	1059.4364	-791.04785	886.5885	938.63397	-775.43115	935.36591	794.09052	-801.12897	877.57019	800.84747	-768.13055	906.25934	721.3335	-763.55762	1020.41833	941.53802	-1155.41479	1039.81836	951.3175	-933.23315	864.27454	973.29431	-1112.73669	885.56268	976.60315	-943.91602	905.25299	631.95813	-1195.86218	870.16357	470.98813	-1171.66931	727.63312	254.45181	-1161.7428	642.75372	104.24394	-1117.62769	596.90222	107.05586	-1075.02649	768.41986	33.74781	-1104.53137	1049.33862	628.15533	-872.04419	1084.28198	511.54144	-904.36145	1107.12903	248.36929	-902.52991	1142.6051	65.91176	-946.60242	1108.53979	39.18007	-992.979	1298.51941	51.5348	-950.36902	917.71344	1684.70874	-1021.974	NaN	NaN	NaN	NaN	NaN	NaN	NaN	NaN	NaN	NaN	NaN	NaN	NaN	NaN	NaN	NaN	NaN	NaN	NaN	NaN	NaN	NaN	NaN	NaN	NaN	NaN	NaN	NaN	NaN	NaN	NaN	NaN	NaN
249	2.48	1035.1698	1651.16626	-1064.73828	1014.02704	1631.17456	-936.13446	904.5448	1597.79907	-1091.14014	884.89972	1582.74011	-964.11072	894.10223	1435.44592	-1039.54822	862.39197	1105.50037	-1035.32727	1003.24176	1358.22852	-1031.29346	1043.5144	1182.66272	-1044.82495	815.70459	1260.20996	-972.22736	960.6358	1393.95667	-1196.53345	991.28326	1194.71106	-1272.24133	1013.46594	1083.82544	-1286.75818	1113.75842	972.2851	-1295.41431	1226.75024	924.41034	-1240.39648	1185.15869	878.37744	-1273.94421	1267.20361	841.24713	-1267.31116	944.07837	1382.23523	-872.79968	889.70459	1181.99426	-798.73248	893.93823	1059.66357	-789.77216	897.49072	939.02399	-773.8775	946.73871	794.63416	-799.87634	888.89459	801.1037	-766.94739	918.29285	721.84253	-762.11072	1030.46472	942.14008	-1154.70996	1050.39832	952.89697	-932.78528	874.4422	973.8689	-1112.49329	895.60461	978.39056	-943.79962	915.79242	632.08325	-1194.73132	881.50568	470.95532	-1170.7561	734.2713	257.69241	-1161.54419	646.05908	109.06152	-1118.07922	600.55225	113.22327	-1075.50171	768.91956	33.6921	-1104.61145	1058.63428	630.13885	-870.95349	1093.42603	513.42108	-903.03186	1114.34937	249.48265	-901.14838	1144.40015	66.04463	-945.74036	1109.27087	39.83952	-991.90179	1299.90991	47.89487	-951.16101	926.39325	1685.62402	-1020.4101	NaN	NaN	NaN	NaN	NaN	NaN	NaN	NaN	NaN	NaN	NaN	NaN	NaN	NaN	NaN	NaN	NaN	NaN	NaN	NaN	NaN	NaN	NaN	NaN	NaN	NaN	NaN	NaN	NaN	NaN	NaN	NaN	NaN
250	2.49	1043.85229	1652.22375	-1063.25562	1022.76434	1632.16528	-934.69318	913.22601	1598.89526	-1089.64795	893.62939	1583.698	-962.62823	903.10645	1436.45935	-1038.32056	871.92731	1106.44861	-1034.71704	1012.21442	1359.39111	-1029.9978	1052.96436	1183.97339	-1043.66296	825.09705	1260.97791	-970.88654	969.89423	1394.95105	-1195.27173	1000.04999	1195.31445	-1270.24866	1022.18402	1084.40405	-1284.83032	1120.56299	971.13586	-1293.03662	1233.05688	921.54138	-1238.63806	1190.6167	875.99188	-1271.9425	1272.11584	837.80499	-1265.83801	953.06842	1383.17896	-871.52325	899.65802	1182.67285	-797.47229	904.3844	1060.37061	-788.52844	908.3764	939.59949	-772.96039	958.35938	795.58679	-798.69147	900.39502	801.73987	-765.74731	929.94928	722.62512	-761.07202	1040.60693	943.06708	-1153.74707	1060.82385	954.99988	-932.33228	884.59399	974.82037	-1112.4021	905.5733	980.27289	-943.81543	926.94165	632.30157	-1193.60962	893.84436	470.97934	-1169.79211	741.1908	261.41794	-1161.23401	649.97949	114.53024	-1118.3667	604.95416	120.15997	-1075.67981	769.48297	33.5368	-1104.62634	1067.41516	631.81128	-870.37634	1102.98889	515.32526	-902.7243	1119.69958	249.96414	-899.76001	1145.22766	65.78833	-944.97528	1109.50354	40.12356	-991.03552	1300.51257	44.2945	-951.93396	935.17096	1686.6665	-1018.8988	NaN	NaN	NaN	NaN	NaN	NaN	NaN	NaN	NaN	NaN	NaN	NaN	NaN	NaN	NaN	NaN	NaN	NaN	NaN	NaN	NaN	NaN	NaN	NaN	NaN	NaN	NaN	NaN	NaN	NaN	NaN	NaN	NaN
251	2.5	1052.53931	1653.39001	-1061.82361	1031.58899	1633.30652	-933.21362	921.93298	1600.11865	-1088.23291	902.31842	1584.82959	-961.22156	911.7179	1437.22778	-1036.71167	881.56396	1107.56677	-1034.04028	1021.25415	1360.69214	-1028.745	1062.46191	1185.3811	-1042.46936	834.50049	1261.90149	-969.69666	979.09546	1396.23096	-1193.94263	1008.94092	1196.44287	-1268.67395	1030.78833	1085.39124	-1282.77039	1127.46277	970.38281	-1291.06384	1238.87048	918.46802	-1237.00391	1195.62634	873.92773	-1270.44751	1276.40894	834.24164	-1264.65002	961.86304	1384.31226	-870.42072	909.71008	1183.68127	-796.23328	915.23334	1061.39453	-787.39307	919.45978	940.6662	-771.78644	970.04895	796.90735	-797.4646	912.1543	802.77924	-764.50897	942.3924	723.81317	-759.5918	1050.70874	944.18506	-1152.63489	1070.86084	957.28546	-931.75018	895.06097	975.75421	-1112.0614	915.50793	982.12915	-943.68976	938.67627	632.5907	-1192.58508	907.27838	470.98669	-1168.87451	748.81708	265.69662	-1160.83875	654.6535	120.60067	-1118.54138	610.29065	127.74245	-1075.71692	770.26556	33.61934	-1104.66016	1076.9071	633.6582	-869.79584	1112.4751	516.74304	-902.11816	1124.23462	250.34515	-898.88879	1146.4707	65.71861	-944.57465	1110.20789	40.57657	-990.37073	1301.26282	41.93311	-952.05042	943.8316	1687.79565	-1017.315	NaN	NaN	NaN	NaN	NaN	NaN	NaN	NaN	NaN	NaN	NaN	NaN	NaN	NaN	NaN	NaN	NaN	NaN	NaN	NaN	NaN	NaN	NaN	NaN	NaN	NaN	NaN	NaN	NaN	NaN	NaN	NaN	NaN
